<svg width="552" height="64" viewBox="0 0 552 64" fill="none" xmlns="http://www.w3.org/2000/svg">
<path d="M11.4199 5.1525V41.0305H23.4156V48.9627H3.16162V5.1525H11.4199Z" fill="white"/>
<path d="M35.0152 32.7932C35.0152 30.2712 35.397 27.9729 36.1605 25.8983C36.9642 23.783 38.0493 21.9729 39.4156 20.4678C40.782 18.9627 42.3693 17.8034 44.1777 16.9898C46.0263 16.1356 47.9954 15.7084 50.0851 15.7084C53.9028 15.7084 57.2584 17.1729 60.1518 20.1017V16.5627H68.169V48.9627H60.1518V45.5458C58.7453 46.9695 57.2584 48.0475 55.6911 48.7797C54.1239 49.4712 52.3155 49.817 50.266 49.817C48.2164 49.817 46.2674 49.4102 44.4188 48.5966C42.6104 47.7424 41.003 46.5627 39.5965 45.0576C38.1899 43.5526 37.0647 41.7627 36.2208 39.6881C35.4171 37.5729 35.0152 35.2746 35.0152 32.7932ZM51.7127 42.3729C52.9585 42.3729 54.1038 42.1492 55.1486 41.7017C56.2336 41.2542 57.1579 40.6034 57.9215 39.7492C58.7252 38.8949 59.3481 37.878 59.7901 36.6983C60.2724 35.478 60.5135 34.1356 60.5135 32.6712C60.5135 31.2475 60.2925 29.9661 59.8504 28.8271C59.4084 27.6474 58.7855 26.6508 57.9818 25.8373C57.2182 24.983 56.2939 24.3322 55.2089 23.8847C54.164 23.3966 52.9986 23.1525 51.7127 23.1525C50.3865 23.1525 49.1809 23.4169 48.0959 23.9457C47.051 24.4339 46.1468 25.1051 45.3833 25.9593C44.6599 26.8135 44.0973 27.8305 43.6955 29.0102C43.2936 30.1491 43.0927 31.3898 43.0927 32.7322C43.0927 34.1153 43.2936 35.3966 43.6955 36.5763C44.1375 37.7559 44.7403 38.7729 45.5039 39.6271C46.2674 40.4814 47.1716 41.1526 48.2164 41.6407C49.3015 42.1288 50.4669 42.3729 51.7127 42.3729Z" fill="white"/>
<path d="M84.0965 48.9627V16.5627H92.1137V19.8576C93.6408 18.5559 95.1478 17.539 96.6347 16.8068C98.1216 16.0745 99.7692 15.7084 101.578 15.7084C103.065 15.7084 104.471 15.9729 105.797 16.5017C107.123 16.9898 108.289 17.722 109.293 18.6983C110.298 19.6339 111.082 20.7932 111.644 22.1763C112.247 23.5186 112.549 25.0644 112.549 26.8135V48.9627H104.531V33.6475C104.531 32.061 104.471 30.6169 104.35 29.3152C104.27 28.0136 104.029 26.9152 103.627 26.0203C103.265 25.0847 102.723 24.3729 102 23.8847C101.276 23.3966 100.312 23.1525 99.1062 23.1525C97.137 23.1525 95.4693 23.9661 94.1029 25.5932C92.7768 27.2203 92.1137 29.6813 92.1137 32.9763V48.9627H84.0965Z" fill="white"/>
<path d="M126.45 32.7932C126.45 30.2712 126.831 27.9729 127.595 25.8983C128.399 23.783 129.484 21.9729 130.85 20.4678C132.216 18.9627 133.804 17.8034 135.612 16.9898C137.461 16.1356 139.43 15.7084 141.52 15.7084C145.337 15.7084 148.693 17.1729 151.586 20.1017V4.05419H159.603V48.9627H151.586V45.5458C150.18 46.9695 148.693 48.0475 147.126 48.7797C145.558 49.4712 143.75 49.817 141.7 49.817C139.651 49.817 137.702 49.4102 135.853 48.5966C134.045 47.7424 132.437 46.5627 131.031 45.0576C129.624 43.5526 128.499 41.7627 127.655 39.6881C126.851 37.5729 126.45 35.2746 126.45 32.7932ZM143.147 42.3729C144.393 42.3729 145.538 42.1492 146.583 41.7017C147.668 41.2542 148.592 40.6034 149.356 39.7492C150.16 38.8949 150.783 37.878 151.225 36.6983C151.707 35.478 151.948 34.1356 151.948 32.6712C151.948 31.2475 151.727 29.9661 151.285 28.8271C150.843 27.6474 150.22 26.6508 149.416 25.8373C148.653 24.983 147.728 24.3322 146.643 23.8847C145.598 23.3966 144.433 23.1525 143.147 23.1525C141.821 23.1525 140.615 23.4169 139.53 23.9457C138.485 24.4339 137.581 25.1051 136.818 25.9593C136.094 26.8135 135.532 27.8305 135.13 29.0102C134.728 30.1491 134.527 31.3898 134.527 32.7322C134.527 34.1153 134.728 35.3966 135.13 36.5763C135.572 37.7559 136.175 38.7729 136.938 39.6271C137.702 40.4814 138.606 41.1526 139.651 41.6407C140.736 42.1288 141.901 42.3729 143.147 42.3729Z" fill="white"/>
<path d="M172.154 16.5627H180.352L188.429 37.8576L196.507 16.5627H204.645L191.323 48.9627H185.536L172.154 16.5627Z" fill="white"/>
<path d="M217.217 48.9627V16.5627H225.234V48.9627H217.217ZM216.072 8.14233C216.072 6.7186 216.574 5.53894 217.579 4.60334C218.583 3.66775 219.789 3.19995 221.196 3.19995C222.642 3.19995 223.848 3.72877 224.812 4.7864C225.817 5.84403 226.319 7.10504 226.319 8.56945C226.319 9.99318 225.817 11.2135 224.812 12.2305C223.808 13.2474 222.602 13.7559 221.196 13.7559C219.709 13.7559 218.483 13.2067 217.519 12.1084C216.554 10.9695 216.072 9.64742 216.072 8.14233Z" fill="white"/>
<path d="M248.356 4.05419V48.9627H240.339V4.05419H248.356Z" fill="white"/>
<path d="M270.674 4.05419V48.9627H262.657V4.05419H270.674Z" fill="white"/>
<path d="M284.13 32.7322C284.13 30.5356 284.512 28.4203 285.276 26.3864C286.039 24.3118 287.144 22.4813 288.591 20.8949C290.038 19.3085 291.786 18.0474 293.835 17.1118C295.885 16.1762 298.196 15.7084 300.768 15.7084C303.299 15.7084 305.61 16.1559 307.7 17.0508C309.789 17.9051 311.578 19.1051 313.065 20.6508C314.552 22.1966 315.697 24.0474 316.501 26.2034C317.345 28.3593 317.766 30.7186 317.766 33.2814C317.766 33.6475 317.766 33.9525 317.766 34.1966C317.766 34.4407 317.746 34.7458 317.706 35.1119H291.906C292.308 37.5525 293.333 39.4237 294.981 40.7254C296.628 41.9865 298.598 42.617 300.888 42.617C302.817 42.617 304.445 42.3119 305.771 41.7017C307.097 41.0915 308.443 40.1966 309.81 39.017L315.536 43.8373C314.813 44.6509 313.969 45.4237 313.004 46.1559C312.04 46.8475 310.955 47.478 309.749 48.0475C308.544 48.5763 307.197 49.0034 305.711 49.3288C304.264 49.6543 302.656 49.817 300.888 49.817C298.356 49.817 296.046 49.3695 293.956 48.4746C291.907 47.5797 290.138 46.3797 288.651 44.8746C287.205 43.3288 286.079 41.5187 285.276 39.4441C284.512 37.3288 284.13 35.0915 284.13 32.7322ZM292.268 28.7051H309.689C309.126 26.7932 308.061 25.3085 306.494 24.2508C304.927 23.1525 303.058 22.6034 300.888 22.6034C298.879 22.6034 297.131 23.1118 295.644 24.1288C294.197 25.1051 293.072 26.6305 292.268 28.7051Z" fill="white"/>
<path d="M361.002 4.11499C363.132 4.11499 365.081 4.29804 366.849 4.66414C368.658 5.03025 370.305 5.5794 371.792 6.3116C373.319 7.00313 374.726 7.85737 376.012 8.87432C377.298 9.85059 378.523 10.9896 379.689 12.2913L373.902 18.0879C372.053 16.1353 370.084 14.6506 367.995 13.6336C365.945 12.6167 363.634 12.1082 361.062 12.1082C358.892 12.1082 356.883 12.515 355.034 13.3286C353.226 14.1014 351.659 15.1591 350.333 16.5015C349.006 17.8438 347.962 19.4099 347.198 21.1998C346.475 22.9896 346.113 24.9015 346.113 26.9354C346.113 29.0506 346.515 31.0438 347.319 32.915C348.122 34.7455 349.207 36.3523 350.574 37.7354C351.98 39.0778 353.628 40.1354 355.517 40.9083C357.405 41.6812 359.435 42.0676 361.605 42.0676C364.498 42.0676 366.91 41.4778 368.838 40.2981C370.767 39.0778 372.315 37.1862 373.48 34.6235H360.942V26.6913H382.763V26.7523C382.763 30.2913 382.241 33.5049 381.196 36.393C380.191 39.2405 378.744 41.6812 376.856 43.7151C375.007 45.749 372.757 47.3151 370.104 48.4134C367.452 49.5117 364.498 50.0608 361.243 50.0608C357.626 50.0608 354.371 49.4303 351.478 48.1693C348.584 46.9083 346.113 45.2201 344.064 43.1049C342.054 40.9896 340.507 38.5286 339.422 35.7218C338.337 32.8744 337.794 29.9049 337.794 26.8133C337.794 23.7218 338.357 20.8133 339.482 18.0879C340.607 15.3218 342.195 12.9014 344.244 10.8269C346.294 8.75228 348.745 7.12516 351.598 5.9455C354.452 4.72516 357.586 4.11499 361.002 4.11499Z" fill="#264EB4"/>
<path d="M397.281 48.9625V16.5625H404.213V20.6506C404.977 18.9421 405.961 17.7015 407.167 16.9286C408.373 16.115 409.638 15.7082 410.965 15.7082C411.768 15.7082 412.451 15.8099 413.014 16.0133C413.577 16.176 414.059 16.3591 414.461 16.5625L411.989 23.5184C411.668 23.3557 411.306 23.2133 410.904 23.0913C410.502 22.9286 410.08 22.8472 409.638 22.8472C408.393 22.8472 407.348 23.5794 406.504 25.0438C405.7 26.5082 405.298 28.8676 405.298 32.1218V48.9625H397.281Z" fill="#264EB4"/>
<path d="M423.74 32.732C423.74 30.332 424.182 28.0947 425.066 26.0201C425.95 23.9455 427.156 22.1557 428.683 20.6506C430.25 19.1048 432.039 17.9048 434.048 17.0506C436.097 16.1557 438.267 15.7082 440.558 15.7082C442.849 15.7082 444.999 16.1557 447.008 17.0506C449.058 17.9048 450.846 19.1048 452.373 20.6506C453.94 22.1557 455.166 23.9455 456.05 26.0201C456.934 28.0947 457.376 30.332 457.376 32.732C457.376 35.0913 456.954 37.3083 456.11 39.3828C455.266 41.4574 454.081 43.2676 452.554 44.8134C451.067 46.3591 449.299 47.5795 447.249 48.4744C445.2 49.3693 442.969 49.8168 440.558 49.8168C438.147 49.8168 435.917 49.3693 433.867 48.4744C431.818 47.5795 430.029 46.3591 428.502 44.8134C427.015 43.2676 425.85 41.4574 425.006 39.3828C424.162 37.3083 423.74 35.0913 423.74 32.732ZM431.818 32.793C431.818 34.2167 432.039 35.4981 432.481 36.6371C432.963 37.7761 433.586 38.7523 434.349 39.5659C435.153 40.3795 436.077 41.01 437.122 41.4574C438.207 41.9049 439.353 42.1286 440.558 42.1286C441.764 42.1286 442.889 41.9049 443.934 41.4574C445.019 41.01 445.943 40.3795 446.707 39.5659C447.51 38.7523 448.133 37.7761 448.575 36.6371C449.058 35.4981 449.299 34.2167 449.299 32.793C449.299 31.4099 449.078 30.1489 448.636 29.0099C448.234 27.871 447.651 26.8947 446.887 26.0811C446.124 25.2269 445.2 24.576 444.115 24.1286C443.03 23.6404 441.844 23.3964 440.558 23.3964C439.272 23.3964 438.087 23.6404 437.002 24.1286C435.917 24.576 434.992 25.2269 434.229 26.0811C433.465 26.8947 432.862 27.871 432.42 29.0099C432.018 30.1489 431.818 31.4099 431.818 32.793Z" fill="#264EB4"/>
<path d="M471.704 16.5625H479.722V33.4642C479.722 36.393 480.184 38.61 481.108 40.115C482.072 41.5795 483.62 42.3117 485.75 42.3117C487.92 42.3117 489.467 41.5998 490.391 40.1761C491.315 38.7117 491.777 36.5964 491.777 33.8303V16.5625H499.795V33.8303C499.795 39.0371 498.549 43.0032 496.057 45.7286C493.606 48.4134 490.17 49.7557 485.75 49.7557C483.62 49.7557 481.691 49.4507 479.963 48.8405C478.235 48.1896 476.748 47.2337 475.502 45.9727C474.296 44.671 473.352 43.0439 472.669 41.0913C472.026 39.0981 471.704 36.7388 471.704 34.0133V16.5625Z" fill="#264EB4"/>
<path d="M515.625 60.7998V16.5625H523.642V20.1015C526.535 17.1726 529.891 15.7082 533.709 15.7082C535.758 15.7082 537.707 16.1353 539.556 16.9896C541.404 17.8031 543.012 18.9625 544.378 20.4676C545.744 21.9726 546.829 23.7828 547.633 25.8981C548.437 27.9727 548.839 30.271 548.839 32.793C548.839 35.2744 548.417 37.5727 547.573 39.6879C546.769 41.7625 545.664 43.5523 544.258 45.0574C542.851 46.5625 541.223 47.7422 539.375 48.5964C537.526 49.41 535.577 49.8168 533.528 49.8168C531.478 49.8168 529.67 49.471 528.103 48.7795C526.576 48.0473 525.089 46.9693 523.642 45.5456V60.7998H515.625ZM532.081 42.3727C533.327 42.3727 534.472 42.1286 535.517 41.6405C536.602 41.1523 537.526 40.4811 538.29 39.6269C539.053 38.7727 539.656 37.7557 540.098 36.5761C540.54 35.3964 540.761 34.115 540.761 32.732C540.761 31.3896 540.56 30.1489 540.159 29.0099C539.757 27.8303 539.174 26.8133 538.41 25.9591C537.647 25.1049 536.723 24.4337 535.638 23.9455C534.593 23.4167 533.407 23.1523 532.081 23.1523C530.795 23.1523 529.61 23.3964 528.525 23.8845C527.48 24.332 526.555 24.9828 525.752 25.8371C524.988 26.6506 524.385 27.6472 523.943 28.8269C523.501 29.9659 523.28 31.2472 523.28 32.671C523.28 34.1354 523.501 35.4777 523.943 36.6981C524.426 37.8778 525.048 38.8947 525.812 39.7489C526.616 40.5625 527.54 41.2134 528.585 41.7015C529.67 42.1489 530.835 42.3727 532.081 42.3727Z" fill="#264EB4"/>
</svg>
